PathFileType	4	(X/Y/Z)	C:/Users/Carlo/Dropbox/Carlos/SARAH/CongressoMarcha2025/WorkshopOpenSim/C3D/Caso02/Walking04.c3d.trc
DataRate	CameraRate	NumFrames	NumMarkers	Units	OrigDataRate	OrigDataStartFrame	OrigNumFrames
100.000000	100.000000	2	197	mm	100.000000	240	321
Frame#	Time	LFHD			RFHD			LBHD			RBHD			C7			STRN			LSHO			LUPA			LELB			LFRM			LWRA			LFIN			RSHO			RUPA			RELB			RFRM			RWRA			RWRB			RFIN			RASI			LANK			LHEE			LTOE			RTHI			RKNE			RTIB			RANK			RHEE			RTOE			PELO			PELA			PELL			PELP			LFEO			LFEA			LFEL			LFEP			LTIO			LTIA			LTIL			LTIP			LFOO			LFOA			LFOL			LFOP			RFEO			RFEA			RFEL			RFEP			RTIO			RTIA			RTIL			RTIP			RFOO			RFOA			RFOL			RFOP			LTOO			LTOA			LTOL			LTOP			RTOO			RTOA			RTOL			RTOP			HEDO			HEDA			HEDL			HEDP			LCLO			LCLA			LCLL			LCLP			RCLO			RCLA			RCLL			RCLP			TRXO			TRXA			TRXL			TRXP			LHUO			LHUA			LHUL			LHUP			LRAO			LRAA			LRAL			LRAP			LHNO			LHNA			LHNL			LHNP			RHUO			RHUA			RHUL			RHUP			RRAO			RRAA			RRAL			RRAP			RHNO			RHNA			RHNL			RHNP			LWRB			LTIB			LASI			LTHI			LKNE			RPSI			CLAV			RBAK			LPSI			T10			LHipAngles			LKneeAngles			LAbsAnkleAngle			LAnkleAngles			RHipAngles			RKneeAngles			RAnkleAngles			RAbsAnkleAngle			LPelvisAngles			RPelvisAngles			LFootProgressAngles			RFootProgressAngles			RNeckAngles			LNeckAngles			RSpineAngles			LSpineAngles			LShoulderAngles			LElbowAngles			LWristAngles			RShoulderAngles			RElbowAngles			RWristAngles			RThoraxAngles			LThoraxAngles			RHeadAngles			LHeadAngles			LHipPower			LKneePower			LAnklePower			RHipPower			RKneePower			RAnklePower			LWaistPower			RWaistPower			LNeckPower			RNeckPower			LShoulderPower			RShoulderPower			LElbowPower			RElbowPower			LWristPower			RWristPower			LGroundReactionForce			LNormalisedGRF			RGroundReactionForce			RNormalisedGRF			LAnkleForce			RAnkleForce			RKneeForce			LKneeForce			RHipForce			LHipForce			LWaistForce			RWaistForce			LNeckForce			RNeckForce			LShoulderForce			RShoulderForce			LElbowForce			RElbowForce			LWristForce			RWristForce			LGroundReactionMoment			RGroundReactionMoment			LAnkleMoment			RAnkleMoment			RKneeMoment			LKneeMoment			RHipMoment			LHipMoment			LWaistMoment			RWaistMoment			LNeckMoment			RNeckMoment			LShoulderMoment			RShoulderMoment			LElbowMoment			RElbowMoment			LWristMoment			RWristMoment			CentreOfMass			CentreOfMassFloor			
		X1	Y1	Z1	X2	Y2	Z2	X3	Y3	Z3	X4	Y4	Z4	X5	Y5	Z5	X6	Y6	Z6	X7	Y7	Z7	X8	Y8	Z8	X9	Y9	Z9	X10	Y10	Z10	X11	Y11	Z11	X12	Y12	Z12	X13	Y13	Z13	X14	Y14	Z14	X15	Y15	Z15	X16	Y16	Z16	X17	Y17	Z17	X18	Y18	Z18	X19	Y19	Z19	X20	Y20	Z20	X21	Y21	Z21	X22	Y22	Z22	X23	Y23	Z23	X24	Y24	Z24	X25	Y25	Z25	X26	Y26	Z26	X27	Y27	Z27	X28	Y28	Z28	X29	Y29	Z29	X30	Y30	Z30	X31	Y31	Z31	X32	Y32	Z32	X33	Y33	Z33	X34	Y34	Z34	X35	Y35	Z35	X36	Y36	Z36	X37	Y37	Z37	X38	Y38	Z38	X39	Y39	Z39	X40	Y40	Z40	X41	Y41	Z41	X42	Y42	Z42	X43	Y43	Z43	X44	Y44	Z44	X45	Y45	Z45	X46	Y46	Z46	X47	Y47	Z47	X48	Y48	Z48	X49	Y49	Z49	X50	Y50	Z50	X51	Y51	Z51	X52	Y52	Z52	X53	Y53	Z53	X54	Y54	Z54	X55	Y55	Z55	X56	Y56	Z56	X57	Y57	Z57	X58	Y58	Z58	X59	Y59	Z59	X60	Y60	Z60	X61	Y61	Z61	X62	Y62	Z62	X63	Y63	Z63	X64	Y64	Z64	X65	Y65	Z65	X66	Y66	Z66	X67	Y67	Z67	X68	Y68	Z68	X69	Y69	Z69	X70	Y70	Z70	X71	Y71	Z71	X72	Y72	Z72	X73	Y73	Z73	X74	Y74	Z74	X75	Y75	Z75	X76	Y76	Z76	X77	Y77	Z77	X78	Y78	Z78	X79	Y79	Z79	X80	Y80	Z80	X81	Y81	Z81	X82	Y82	Z82	X83	Y83	Z83	X84	Y84	Z84	X85	Y85	Z85	X86	Y86	Z86	X87	Y87	Z87	X88	Y88	Z88	X89	Y89	Z89	X90	Y90	Z90	X91	Y91	Z91	X92	Y92	Z92	X93	Y93	Z93	X94	Y94	Z94	X95	Y95	Z95	X96	Y96	Z96	X97	Y97	Z97	X98	Y98	Z98	X99	Y99	Z99	X100	Y100	Z100	X101	Y101	Z101	X102	Y102	Z102	X103	Y103	Z103	X104	Y104	Z104	X105	Y105	Z105	X106	Y106	Z106	X107	Y107	Z107	X108	Y108	Z108	X109	Y109	Z109	X110	Y110	Z110	X111	Y111	Z111	X112	Y112	Z112	X113	Y113	Z113	X114	Y114	Z114	X115	Y115	Z115	X116	Y116	Z116	X117	Y117	Z117	X118	Y118	Z118	X119	Y119	Z119	X120	Y120	Z120	X121	Y121	Z121	X122	Y122	Z122	X123	Y123	Z123	X124	Y124	Z124	X125	Y125	Z125	X126	Y126	Z126	X127	Y127	Z127	X128	Y128	Z128	X129	Y129	Z129	X130	Y130	Z130	X131	Y131	Z131	X132	Y132	Z132	X133	Y133	Z133	X134	Y134	Z134	X135	Y135	Z135	X136	Y136	Z136	X137	Y137	Z137	X138	Y138	Z138	X139	Y139	Z139	X140	Y140	Z140	X141	Y141	Z141	X142	Y142	Z142	X143	Y143	Z143	X144	Y144	Z144	X145	Y145	Z145	X146	Y146	Z146	X147	Y147	Z147	X148	Y148	Z148	X149	Y149	Z149	X150	Y150	Z150	X151	Y151	Z151	X152	Y152	Z152	X153	Y153	Z153	X154	Y154	Z154	X155	Y155	Z155	X156	Y156	Z156	X157	Y157	Z157	X158	Y158	Z158	X159	Y159	Z159	X160	Y160	Z160	X161	Y161	Z161	X162	Y162	Z162	X163	Y163	Z163	X164	Y164	Z164	X165	Y165	Z165	X166	Y166	Z166	X167	Y167	Z167	X168	Y168	Z168	X169	Y169	Z169	X170	Y170	Z170	X171	Y171	Z171	X172	Y172	Z172	X173	Y173	Z173	X174	Y174	Z174	X175	Y175	Z175	X176	Y176	Z176	X177	Y177	Z177	X178	Y178	Z178	X179	Y179	Z179	X180	Y180	Z180	X181	Y181	Z181	X182	Y182	Z182	X183	Y183	Z183	X184	Y184	Z184	X185	Y185	Z185	X186	Y186	Z186	X187	Y187	Z187	X188	Y188	Z188	X189	Y189	Z189	X190	Y190	Z190	X191	Y191	Z191	X192	Y192	Z192	X193	Y193	Z193	X194	Y194	Z194	X195	Y195	Z195	X196	Y196	Z196	X197	Y197	Z197	

241	2.4	-1382.5498046875	1719.720581054688	369.8740234375001	-1409.685668945313	1717.645019531251	244.4875335693361	-1237.33154296875	1672.331054687501	338.3152160644532	-1278.738891601563	1680.332519531251	202.958221435547	-1236.088134765625	1503.502685546875	266.1382446289064	-1419.794921875	1263.6669921875	303.043914794922	-1246.231811523438	1447.388061523438	479.2205200195315	-1208.96484375	1290.024536132813	529.511901855469	-1153.693725585938	1125.382934570313	544.1708984375002	-1166.575561523438	998.1144409179692	573.8338623046877	-1243.530029296875	870.2274780273442	548.8438720703127	-1221.223022460938	791.3134765625005	601.1495361328127	-1331.544189453125	1436.553588867188	70.58209991455081	-1371.965087890625	1230.36279296875	3.212912082672121	-1393.97216796875	1112.805053710938	-17.70302963256837	-1514.877563476563	1026.897583007813	-7.101951599121097	-1601.923583984376	943.5149536132817	38.84836196899415	-1550.260986328126	899.1738891601567	1.47221326828003	-1638.068969726563	874.052856445313	-3.019255161285402	-1366.834106445313	1020.806274414063	196.1894683837892	-1506.254760742188	86.80075836181643	446.3861999511721	-1477.792236328125	41.93099594116212	388.1333923339846	-1653.638793945313	79.8955993652344	444.6918945312502	-1278.362182617188	655.344421386719	154.7069244384766	-1231.587768554688	504.3949890136721	188.2620697021485	-1164.389404296875	260.0892944335939	178.4347686767579	-1116.563232421875	81.41975402832034	196.5463867187501	-1048.765014648438	50.63150024414065	240.4139709472657	-1250.496459960938	41.49088668823244	239.9572906494142	-1314.491821289063	921.820190429688	303.5679321289064	-1444.386596679688	922.6099243164067	308.179168701172	-1309.871459960938	923.364379882813	433.4556274414065	-1313.757446289063	1051.78759765625	301.9966735839845	-1427.590576171875	522.0484619140627	401.2609558105471	-1819.858642578126	627.6308593750002	302.3383178710939	-1514.03564453125	580.2457275390627	806.165893554688	-1311.57080078125	922.3898315429692	368.4892578125001	-1516.400756835938	88.74614715576175	402.5881042480471	-1917.671386718751	171.2869567871094	499.2097778320315	-1421.49951171875	70.54986572265628	812.258178710938	-1431.887451171875	501.084411621094	401.325134277344	-1639.460083007813	101.0086059570313	449.6939086914065	-1604.606689453126	282.4879760742189	446.3002014160159	-1590.013061523438	94.8405685424805	627.676940917969	-1464.81396484375	66.5379333496094	399.9793395996096	-1215.249755859375	509.5259399414065	246.2878723144532	-1610.784545898438	413.6044616699221	366.1387023925782	-1100.6728515625	545.5086669921877	653.2158203125002	-1317.412841796875	921.2507324218755	238.6466064453126	-1109.293334960938	82.66792297363284	240.9377441406251	-1509.749267578125	-17.59217834472657	309.3389282226564	-1041.692138671875	94.27444458007815	653.722351074219	-1210.094604492188	488.7578125000002	246.0275421142579	-1243.154541015625	63.09803009033206	225.4689788818361	-1253.759887695313	252.9396362304689	229.2515106201173	-1246.951293945313	59.09835052490237	415.5642089843752	-1053.313354492188	73.62344360351565	229.4821166992189	-1697.675292968751	112.4988250732422	466.2654113769534	-1686.057495117188	172.991928100586	465.1341552734377	-1681.192993164063	110.4428329467774	525.5930786132815	-1639.459960937501	101.0085906982422	449.6939392089846	-1306.434936523438	59.58954238891604	224.1313018798829	-1309.970092773438	122.8700866699219	225.3922119140626	-1307.700439453125	58.25625610351565	287.4963989257814	-1243.154418945313	63.09807968139651	225.4689483642579	-1238.514892578125	1599.234252929688	263.9535217285157	-1448.85205078125	1663.746337890626	319.620086669922	-1181.809814453125	1594.547363281251	483.6462402343752	-1174.913696289063	1816.762573242188	252.1780548095704	-1251.577758789063	1390.893920898438	467.2272949218752	-1432.598876953125	1382.630249023438	586.8413696289065	-1231.565185546875	1602.384277343751	512.1248779296877	-1369.794921875	1439.35009765625	291.6677856445314	-1331.121826171875	1380.80419921875	86.57625579833987	-1544.400146484376	1368.6455078125	49.83031845092776	-1329.542724609375	1172.452758789063	146.3508453369141	-1369.794921875	1439.350463867188	291.6677856445314	-1369.794799804688	1439.350219726563	291.6677551269532	-1584.610595703126	1428.5322265625	319.9910278320314	-1397.526123046875	1427.5322265625	76.82728576660159	-1357.538818359375	1222.997802734375	301.9869079589845	-1139.692993164063	1125.736450195313	502.9871520996096	-873.046508789063	1233.042846679688	464.3801269531252	-1161.760131835938	1077.962890625	217.7921752929689	-1251.577758789063	1390.893920898438	467.2272949218752	-1205.165405273438	860.7933959960942	552.4342041015627	-955.2834472656255	797.4157714843755	543.715759277344	-1224.792602539063	818.3024902343755	298.7749023437501	-1144.276123046875	1107.1904296875	506.448425292969	-1227.381225585938	705.210388183594	603.759948730469	-1258.264404296875	760.0542602539065	756.6401367187502	-1066.487915039063	694.2548828125002	640.1919555664065	-1205.165283203125	860.7934570312505	552.434265136719	-1367.740234375	1101.01513671875	14.93331146240235	-1091.698974609375	1088.350341796875	-76.69869232177737	-1452.686645507813	1180.471069335938	-251.9495544433595	-1331.12158203125	1380.80419921875	86.576286315918	-1573.794189453126	918.8577270507817	26.28687858581544	-1421.3779296875	740.1057128906252	-75.44352722167972	-1648.488525390626	988.7241821289067	-208.3862762451173	-1382.1640625	1088.263916015625	15.72804546356202	-1688.548461914063	808.8835449218755	11.20590591430664	-1732.896606445313	874.189819335938	-127.5695495605469	-1790.307983398438	904.440063476563	88.69282531738284	-1573.794311523438	918.8577270507817	26.28690719604494	-1169.717407226563	854.9176635742192	569.2468872070315	-1452.913208007813	317.5238037109376	470.8147583007815	-1359.156982421875	1023.372192382813	412.012878417969	-1387.477783203125	763.8970336914065	500.3283386230471	-1440.099365234375	530.4697265625002	459.8515625000002	-1175.231079101563	1019.497802734375	229.5627441406251	-1376.72607421875	1439.001220703125	292.5816345214845	-1162.285522460938	1341.692504882813	210.1814575195314	-1174.0263671875	1022.408630371094	366.7862854003907	-1168.57666015625	1247.356323242188	276.2560119628907	-3.272649049758913	15.49889278411866	15.94558048248292	5.275192737579347	-26.65475463867189	3.438003063201906	0	0	-0.4486286938190462	1.020905017852784	-2.331755638122559	-0.4490025937557223	0.8610465526580815	14.26968574523926	-14.23626041412354	-1.65707564353943	-7.009434700012211	0.493227690458298	2.232979059219361	-10.58075046539307	10.93699455261231	0	0	10.74881172180176	0.6926591396331789	-2.033202648162843	-0.3237454295158387	-0.6926591396331789	2.033202648162843	-0.3237454295158387	-1.092380642890931	-15.60348892211915	-101.1652069091797	-1.139958620071412	-1.209132313728333	-86.82657623291018	-4.632166862487795	-6.914756298065189	-18.98052406311036	4.632166862487795	6.914756298065189	-18.98052406311036	2.477128505706788	-5.299818038940431	3.272625207901003	-2.477128505706788	5.299818038940431	3.272625207901003	7.376143455505375	2.712378501892091	-18.68230247497559	1.590277359294756e-15	3.101835845467639e-12	36.45741653442384	8.050531387329105	106.4166641235352	-5.247253417968752	18.37600135803223	9.043463706970218	8.067667961120609	1.192708045940846e-15	-6.9654145732484e-13	43.94589996337892	6.218388557434086	95.51814270019534	-5.227570056915285	-2.726365327835084	7.510227680206302	3.242241382598879	2.726365327835084	-7.510227680206302	3.242241382598879	-2.974288940429688	14.21856117248536	16.29794120788575	2.974288940429688	-14.21856117248536	16.29794120788575	0	-0.1930522918701173	0	0	-0.6999967098236086	0	0	0.001594307483173908	0	nan	nan	nan	nan	nan	nan	nan	nan	nan	nan	nan	nan	nan	nan	nan	nan	nan	nan	nan	nan	nan	0	-0.006280989851802591	0	0	-0.004797727800905706	0	0	-0.00664676679298282	0	0	0.004746527411043646	0	0	-9.189923730446031e-05	0	0	-5.624102414003576e-05	0	nan	nan	nan	nan	nan	nan	nan	nan	nan	nan	nan	nan	0.0194741040468216	-0.2143000215291978	-0.2528124153614045	nan	nan	nan	nan	nan	nan	0.008900691755115989	0.9327617287635808	-0.3424973785877229	nan	nan	nan	0.0771814435720444	1.896783471107484	0.183090552687645	nan	nan	nan	nan	nan	nan	nan	nan	nan	nan	nan	nan	-0.129308819770813	0.4148577451705935	0.03294572979211809	0.03723973035812379	0.4479189515113833	0.0710435286164284	-0.04889221489429477	0.1406273245811463	-0.08791018277406695	0.005770495161414148	0.1775123476982117	-0.07704366743564608	-0.008792019449174408	0.03905299678444864	0.01762376166880131	0.003886218648403885	0.0501152686774731	0.004012472927570345	nan	nan	nan	nan	nan	nan	-5.826450382410848e-15	-1.251093029975892	-19.1085376739502	nan	nan	nan	nan	nan	nan	5.09590005874634	-1.597390651702882	-194.3150482177736	nan	nan	nan	-59.36671066284183	-12.78096675872803	186.4067840576172	nan	nan	nan	nan	nan	nan	nan	nan	nan	nan	nan	nan	29.51393127441408	-3.72805690765381	-10.54974174499512	3.422818183898928	0.2066026777029039	19.38829231262208	6.437969207763675	0.1212813407182694	-12.19129371643067	-0.3142231404781343	-0.01591890305280686	-6.528858661651615	0.3638146221637727	2.36847590939264e-16	0.6450849175453188	-0.1681725680828095	1.717145027692219e-16	0.006570454686880115	-1307.862060546875	1001.847045898438	300.206756591797	-1307.862060546875	0	300.206756591797	
242	2.41	-1393.512939453125	1717.647460937501	372.0539855957032	-1420.692016601563	1715.884277343751	246.6670837402345	-1248.501708984375	1669.750610351563	340.3783569335939	-1289.929443359375	1678.128540039063	205.0212402343751	-1247.855590820313	1501.454711914063	267.9497375488282	-1431.361450195313	1261.267822265625	304.2011108398439	-1257.898071289063	1444.888305664063	480.8488464355471	-1220.630737304688	1287.438598632813	530.605407714844	-1165.224975585938	1122.896606445313	544.772155761719	-1177.064697265625	995.5881958007817	574.431823730469	-1253.179565429688	867.045776367188	549.5216064453127	-1230.013427734375	788.2399291992192	601.4838867187502	-1343.28857421875	1434.613403320313	72.44532775878909	-1384.153564453125	1228.928588867188	4.642192840576174	-1406.527099609375	1111.50341796875	-16.8370590209961	-1527.892211914063	1026.369384765625	-5.127882003784181	-1615.061401367188	943.670532226563	41.62465667724611	-1564.302490234376	899.0269165039067	3.399456262588503	-1652.415039062501	874.8121948242192	-0.09736197441816336	-1377.406860351563	1018.529174804688	196.4254302978517	-1537.153198242188	87.32352447509768	449.5867614746096	-1508.86962890625	40.59515762329103	392.9013671875002	-1684.941650390626	86.34039306640628	442.5864257812502	-1286.103637695313	653.6614379882815	155.1381072998047	-1238.021728515625	502.9916992187502	188.8540191650391	-1167.844116210938	259.6026306152345	179.1395111083985	-1117.169799804688	81.61318969726565	196.8074951171876	-1048.937622070313	51.38644790649417	240.7058410644532	-1250.616577148438	41.40225219726564	240.0552673339845	-1325.321655273438	919.4321289062505	303.8546142578126	-1455.241943359375	919.767944335938	307.7473144531251	-1321.426025390625	920.641235351563	433.7696838378909	-1325.022216796875	1049.405151367188	302.6359863281251	-1441.03857421875	519.7783813476565	400.3439025878909	-1834.455810546876	628.8850097656252	308.9674072265626	-1520.187744140625	575.2812500000002	807.389282226563	-1322.762084960938	919.8361206054692	368.792449951172	-1546.761840820313	89.14002227783206	405.6621093750002	-1946.620117187501	188.4376068115235	497.2385864257815	-1456.641845703125	72.10297393798831	817.6343383789067	-1446.140502929688	498.997009277344	400.600524902344	-1670.848144531251	106.9071273803712	448.0865173339846	-1628.535034179688	286.7814331054689	444.1059570312502	-1628.184692382813	100.8485641479493	627.8200683593752	-1496.061279296875	64.84120941162112	405.1792602539065	-1221.944213867188	508.272644042969	246.9390716552736	-1617.003906250001	408.696228027344	365.3423461914064	-1109.195922851563	545.3067626953127	654.2758789062502	-1327.881103515625	919.027954101563	238.9168090820314	-1109.54345703125	83.02392578125003	241.1340942382814	-1507.877197265625	-23.24452209472657	313.0506896972657	-1038.618286132813	96.14345550537115	653.362487792969	-1216.476196289063	487.5849914550784	246.6566772460939	-1243.329345703125	63.02587509155276	225.5628204345704	-1254.534790039063	252.8348999023439	229.2464141845704	-1247.2724609375	59.10397720336917	415.656677246094	-1053.525512695313	74.15012359619143	229.7294006347657	-1729.110473632813	120.9290924072266	462.3889465332034	-1715.006103515626	180.887191772461	461.0620727539065	-1714.889282226563	118.9095611572266	522.3001708984377	-1670.848144531251	106.9071121215821	448.0865173339846	-1306.597290039063	59.31779479980472	224.1739807128907	-1310.332397460938	122.5874938964844	225.4018707275392	-1307.91162109375	58.01047134399417	287.5386047363282	-1243.329345703125	63.02587509155276	225.5628051757814	-1249.984008789063	1596.772583007813	265.8795776367189	-1460.046752929688	1662.015991210938	321.7300720214845	-1193.216796875	1591.505493164063	485.543151855469	-1185.536743164063	1814.069335937501	254.4348754882814	-1263.199951171875	1388.410522460938	468.7593688964846	-1444.245727539063	1379.799682617188	588.382263183594	-1243.348754882813	1599.877563476563	514.025573730469	-1381.478149414063	1437.082397460938	293.2523193359376	-1342.824951171875	1378.848388671875	88.384147644043	-1555.801879882813	1366.587890625	51.68611907958987	-1341.093872070313	1170.726440429688	147.8697814941407	-1381.478149414063	1437.08251953125	293.2523803710939	-1381.47802734375	1437.08251953125	293.2523498535157	-1596.206542968751	1426.053588867188	321.1583862304689	-1408.79736328125	1425.53857421875	78.47552490234378	-1369.06689453125	1220.856201171875	303.2955932617189	-1151.2158203125	1123.403930664063	503.5928955078127	-884.9519042968755	1230.7080078125	463.9471435546877	-1174.572143554688	1076.0791015625	218.6415100097657	-1263.199829101563	1388.410888671875	468.7593688964846	-1214.760009765625	857.9479370117192	552.8884887695315	-964.5275878906255	796.1449584960942	542.6421508789065	-1235.550048828125	815.8229980468755	299.2467041015626	-1155.663696289063	1104.821899414063	507.043640136719	-1235.460571289063	702.1123657226565	603.881530761719	-1266.06298828125	756.2789306640627	756.9924926757815	-1074.375244140625	692.3769531250002	639.5219726562502	-1214.760131835938	857.947875976563	552.8884887695315	-1380.155029296875	1099.5244140625	15.61699390411378	-1104.986572265625	1087.24609375	-78.4154968261719	-1467.3291015625	1180.381469726563	-250.0395355224611	-1342.82470703125	1378.848510742188	88.38420867919925	-1587.327392578126	918.8152465820317	28.5978183746338	-1437.284912109375	739.339782714844	-75.26426696777347	-1663.988769531251	989.9214477539067	-205.0223846435548	-1394.6572265625	1086.874633789063	16.52570343017579	-1703.369628906251	810.100463867188	14.46707248687745	-1748.795166015626	876.5092773437505	-123.412582397461	-1803.144897460938	906.3052368164067	93.67520141601565	-1587.327392578126	918.8152465820317	28.5978126525879	-1179.218872070313	852.3671264648442	569.4971313476565	-1475.055786132813	316.2515563964845	472.4985656738284	-1370.932250976563	1020.538757324219	412.3499755859377	-1397.617797851563	760.0708618164065	500.3147583007815	-1452.484375	527.8045654296877	459.2066345214846	-1186.108520507813	1017.69384765625	230.6046905517579	-1388.41064453125	1436.726440429688	294.1533203125001	-1173.726196289063	1339.927490234375	211.9168853759767	-1185.6318359375	1020.411254882813	368.0117492675782	-1180.135986328125	1245.390380859375	277.9450988769532	-3.325613498687746	14.15075778961182	16.43016242980958	4.132261753082277	-25.0020046234131	1.820342540740968	0	0	-0.4138728380203249	0.6546056270599367	-0.887420773506165	-0.4139169156551363	0.9956533312797551	14.41145324707032	-14.56930732727051	-1.670391559600831	-6.325072765350345	0.8439066410064702	2.358567237854005	-11.10236644744873	11.65182113647461	0	0	11.43078804016114	0.5371853113174441	-1.716221690177918	-0.1319934278726578	-0.5371853113174441	1.716221690177918	-0.1319934278726578	-1.268693685531617	-13.42357444763184	-103.5319976806641	-1.110124588012696	-1.255405187606812	-86.64577484130862	-4.720789432525637	-7.029893398284916	-19.23313903808594	4.720789432525637	7.029893398284916	-19.23313903808594	2.535802602767945	-5.522479534149172	3.118836641311647	-2.535802602767945	5.522479534149172	3.118836641311647	7.221896171569828	2.325267791748048	-18.70627021789551	0	1.205430178417844e-12	36.09826278686525	8.007939338684086	106.4841232299805	-5.339764118194582	18.55564880371094	9.599021911621097	8.260009765625004	0	-2.318624459096697e-12	44.3644371032715	6.27627801895142	95.6731872558594	-5.039920330047609	-2.654969453811646	7.402966976165775	3.285091161727907	2.654969453811646	-7.402966976165775	3.285091161727907	-2.890689849853517	14.265456199646	16.51965332031251	2.890689849853517	-14.265456199646	16.51965332031251	0	-0.1456303745508195	0	0	-0.5619223117828371	0	0	-0.01767341420054436	0	nan	nan	nan	nan	nan	nan	nan	nan	nan	nan	nan	nan	nan	nan	nan	nan	nan	nan	nan	nan	nan	0	-0.004880451131612064	0	0	-0.003712531179189684	0	0	-0.01076274644583464	0	0	0.004469694569706919	0	0	-0.0002735439338721336	0	0	-6.0281661717454e-05	0	nan	nan	nan	nan	nan	nan	nan	nan	nan	nan	nan	nan	0.05690979957580569	-0.1724031567573548	-0.2274505645036698	nan	nan	nan	nan	nan	nan	0.09289940446615222	0.9441775679588322	-0.2363044023513795	nan	nan	nan	0.245499223470688	1.941865205764771	0.1823855340480805	nan	nan	nan	nan	nan	nan	nan	nan	nan	nan	nan	nan	-0.1254968643188477	0.4415115118026736	0.02725886553525926	0.04236358776688577	0.4531564414501192	0.07412432879209521	-0.04446787014603616	0.1599681824445725	-0.1066623479127884	0.005636847112327816	0.179206594824791	-0.07777711004018786	-0.01665920577943326	0.04414724186062814	0.01782684028148652	0.003906384576112034	0.05054618790745738	0.003191273892298343	nan	nan	nan	nan	nan	nan	3.979039337197222e-15	7.145335197448734	-14.36896228790284	nan	nan	nan	nan	nan	nan	27.84089279174806	6.978908061981205	-173.4819335937501	nan	nan	nan	31.1010093688965	-3.686424016952516	186.5840911865235	nan	nan	nan	nan	nan	nan	nan	nan	nan	nan	nan	nan	27.94165229797365	-2.846310377120973	-15.81405067443848	3.312127351760866	0.3371686041355134	20.16628646850587	5.098279476165773	0.1948651671409608	-16.68350410461426	-0.5071325302124026	-0.02437868155539037	-6.390852451324466	0.9410299062728886	-7.105426934084532e-16	0.7352792620658877	-0.1894070506095887	1.006602241639537e-16	-0.05599784851074222	-1319.315551757813	999.9343261718755	301.1525878906251	-1319.315551757813	0	301.1525878906251	
